<svg x="0" y="0" width="4320" height="2160" viewBox="0 0 3024 1512" xmlns="http://www.w3.org/2000/svg" xmlns:xlink="http://www.w3.org/1999/xlink" xmlns:fi="http://pattern.flaticon.com/"><rect x="0px" y="0px" width="100%" height="100%" opacity="1" fill="#5d5d5d"/><defs><g transform="matrix(0.1171875 0 0 0.1171875 77 303)" id="L1_0"><path d="m209.753906 404.117188h81.15625c6.949219-13.296876 20.875-22.375 36.921875-22.375 22.992188 0 41.632813 18.640624 41.632813 41.632812 0 10.617188-3.972656 20.304688-10.511719 27.65625 34.160156 35.695312 73.835937 57.351562 100.269531 49.1875 46.621094-14.398438 34.40625-94.363281 8.296875-178.898438-26.113281-84.535156-74.671875-127.738281-121.289062-113.34375-20.988281 6.484376-61.421875 12.539063-76.714844 12.539063h-38.371094c-15.292969 0-55.726562-6.054687-76.714843-12.539063-46.617188-14.394531-95.175782 28.808594-121.285157 113.34375-26.113281 84.535157-38.324219 164.5 8.292969 178.898438 26.433594 8.164062 66.109375-13.492188 100.269531-49.1875" fill="#52607e"/><path d="m369.464844 423.375c0 22.996094-18.640625 41.636719-41.632813 41.636719-22.996093 0-41.636719-18.640625-41.636719-41.636719 0-22.992188 18.640626-41.632812 41.636719-41.632812 22.992188 0 41.632813 18.640624 41.632813 41.632812zm0 0" fill="#ede6f5"/><path d="m333.117188 433.375h-10.574219c-5.519531 0-9.996094-4.476562-9.996094-9.996094 0-5.523437 4.476563-10 9.996094-10h10.574219c5.523437 0 10 4.476563 10 10 0 5.519532-4.476563 9.996094-10 9.996094zm0 0"/><path d="m214.464844 423.375c0 22.996094-18.640625 41.636719-41.632813 41.636719-22.996093 0-41.636719-18.640625-41.636719-41.636719 0-22.992188 18.640626-41.632812 41.636719-41.632812 22.992188 0 41.632813 18.640624 41.632813 41.632812zm0 0" fill="#ede6f5"/><path d="m178.117188 433.375h-10.570313c-5.523437 0-10-4.476562-10-9.996094 0-5.523437 4.476563-10 10-10h10.570313c5.523437 0 10 4.476563 10 10 0 5.519532-4.476563 9.996094-10 9.996094zm0 0"/><path d="m96.667969 88.28125h-36.867188c-24.34375 0-44.144531-19.804688-44.144531-44.144531 0-24.335938 19.796875-44.136719 44.136719-44.136719h305.101562c5.523438 0 10 4.476562 10 10 0 5.519531-4.476562 9.996094-10 9.996094h-305.101562c-13.3125 0-24.140625 10.832031-24.140625 24.140625 0 13.3125 10.832031 24.144531 24.148437 24.144531h36.867188c5.523437 0 10 4.476562 10 10s-4.476563 10-10 10zm0 0"/><path d="m138.464844 88.277344c-.648438 0-1.308594-.058594-1.949219-.1875s-1.269531-.320313-1.871094-.570313c-.609375-.25-1.1875-.558593-1.730469-.921875-.546874-.367187-1.058593-.789062-1.519531-1.25-.460937-.457031-.878906-.96875-1.238281-1.519531-.359375-.539063-.671875-1.117187-.921875-1.71875-.25-.609375-.449219-1.238281-.570313-1.878906-.128906-.640625-.199218-1.300781-.199218-1.949219 0-.652344.070312-1.3125.199218-1.949219.121094-.640625.320313-1.269531.570313-1.871093.25-.609376.558594-1.191407.921875-1.730469.359375-.550781.777344-1.058594 1.238281-1.519531.460938-.460938.972657-.878907 1.519531-1.238282.542969-.359375 1.121094-.671875 1.730469-.921875.601563-.25 1.230469-.449219 1.871094-.570312 1.289063-.257813 2.617187-.257813 3.898437 0 .640626.121093 1.269532.320312 1.878907.570312.601562.25 1.179687.5625 1.722656.921875.546875.359375 1.058594.777344 1.519531 1.238282.457032.460937.878906.96875 1.238282 1.519531.359374.539062.671874 1.121093.921874 1.730469.25.601562.449219 1.230468.566407 1.871093.132812.636719.203125 1.296875.203125 1.949219 0 .648438-.070313 1.308594-.203125 1.949219-.117188.640625-.316407 1.269531-.566407 1.878906-.25.601563-.5625 1.179687-.921874 1.71875-.359376.550781-.78125 1.0625-1.238282 1.519531-.460937.460938-.972656.882813-1.519531 1.25-.542969.363282-1.121094.671875-1.722656.921875-.609375.25-1.238281.441407-1.878907.570313-.640624.128906-1.300781.1875-1.949218.1875zm0 0"/><path d="m285.023438 217.464844v-22.917969c0-9.574219-7.757813-17.332031-17.328126-17.332031h-34.726562c-9.570312 0-17.332031 7.757812-17.332031 17.332031v22.917969" fill="#00d2d7"/><path d="m344.152344 303.214844c0 13.164062-10.671875 23.835937-23.835938 23.835937-13.164062 0-23.832031-10.671875-23.832031-23.835937 0-13.164063 10.667969-23.832032 23.832031-23.832032 13.164063 0 23.835938 10.667969 23.835938 23.832032zm0 0" fill="#ffea6e"/><path d="m412.554688 302.394531c0 13.164063-10.671876 23.835938-23.832032 23.835938-13.164062 0-23.835937-10.671875-23.835937-23.835938 0-13.164062 10.671875-23.832031 23.835937-23.832031 13.160156 0 23.832032 10.667969 23.832032 23.832031zm0 0" fill="#f05f90"/><path d="m378.765625 268.605469c0 13.164062-10.671875 23.832031-23.835937 23.832031-13.164063 0-23.832032-10.667969-23.832032-23.832031 0-13.164063 10.667969-23.835938 23.832032-23.835938 13.164062 0 23.835937 10.671875 23.835937 23.835938zm0 0" fill="#ede6f5"/><path d="m377.941406 337.007812c0 13.160157-10.667968 23.832032-23.832031 23.832032s-23.835937-10.671875-23.835937-23.832032c0-13.164062 10.671874-23.835937 23.835937-23.835937s23.832031 10.671875 23.832031 23.835937zm0 0" fill="#00d2d7"/><path d="m500.644531 436.917969c-.453125-29.886719-8.164062-68.664063-23.574219-118.550781-13.222656-42.804688-32.492187-76.753907-55.730468-98.171876-24.042969-22.160156-51.765625-29.890624-78.058594-21.769531-12.15625 3.753907-31.617188 7.457031-48.257812 9.753907v-13.636719c0-15.070313-12.257813-27.328125-27.328126-27.328125h-7.28125c2.898438-8.273438 10.789063-14.222656 20.042969-14.222656h80.449219c23.359375 0 42.367188-19 42.367188-42.355469s-19.007813-42.355469-42.367188-42.355469h-183.628906c-5.523438 0-10 4.476562-10 10 0 5.519531 4.476562 9.996094 10 9.996094h183.628906c12.332031 0 22.367188 10.03125 22.367188 22.359375s-10.035157 22.355469-22.367188 22.355469h-80.449219c-20.347656 0-37.300781 14.816406-40.632812 34.222656h-6.855469c-15.070312 0-27.328125 12.261718-27.328125 27.328125v13.636719c-16.640625-2.296876-36.101563-6-48.257813-9.753907-26.292968-8.121093-54.015624-.390625-78.0625 21.769531-23.234374 21.417969-42.507812 55.367188-55.730468 98.171876-15.40625 49.886718-23.117188 88.664062-23.5703128 118.550781-.6093752 40.269531 12.3359378 64.78125 38.4687498 72.855469 4.839844 1.492187 9.984375 2.226562 15.390625 2.226562 25.792969-.003906 57.359375-16.71875 88.234375-47.144531 8.589844 6.378906 19.222657 10.15625 30.71875 10.15625 28.472657 0 51.636719-23.164063 51.636719-51.632813 0-3.160156-.289062-6.257812-.832031-9.261718h53.394531c-.546875 3.003906-.832031 6.101562-.832031 9.261718 0 28.46875 23.160156 51.632813 51.632812 51.632813 11.496094 0 22.128907-3.777344 30.71875-10.15625 30.878907 30.429687 62.441407 47.144531 88.234375 47.144531 5.402344 0 10.554688-.734375 15.390625-2.226562 26.132813-8.074219 39.074219-32.585938 38.46875-72.855469zm-275.007812-242.371094c0-4.042969 3.289062-7.332031 7.332031-7.332031h34.722656c4.042969 0 7.335938 3.289062 7.335938 7.332031v15.773437c-2.078125.128907-47.3125.128907-49.390625 0zm-52.804688 260.464844c-17.445312 0-31.636719-14.191407-31.636719-31.636719 0-17.441406 14.191407-31.632812 31.636719-31.632812 17.445313 0 31.636719 14.191406 31.636719 31.632812 0 17.445312-14.191406 31.636719-31.636719 31.636719zm123.359375-31.632813c0-17.445312 14.195313-31.636718 31.640625-31.636718 17.441407 0 31.636719 14.191406 31.636719 31.636718 0 17.441406-14.195312 31.632813-31.636719 31.632813-17.445312 0-31.640625-14.191407-31.640625-31.632813zm160.082032 67.285156c-20.292969 6.265626-52.90625-9.589843-84.246094-40.613281 4.71875-7.789062 7.4375-16.917969 7.4375-26.671875 0-28.472656-23.164063-51.632812-51.632813-51.632812-17.617187 0-33.203125 8.867187-42.523437 22.371094h-69.953125c-9.324219-13.503907-24.90625-22.371094-42.523438-22.371094-28.472656 0-51.636719 23.160156-51.636719 51.632812 0 9.753906 2.71875 18.882813 7.4375 26.671875-31.339843 31.027344-63.957031 46.882813-84.246093 40.613281-6.199219-1.914062-25.066407-7.742187-24.371094-53.441406.421875-27.960937 7.84375-64.910156 22.683594-112.953125 12.179687-39.4375 29.53125-70.339843 50.175781-89.367187 13.148438-12.121094 33.992188-24.972656 58.605469-17.367188 21.648437 6.683594 63.234375 12.980469 79.664062 12.980469h38.371094c16.433594 0 58.015625-6.296875 79.664063-12.980469 24.613281-7.605468 45.457031 5.246094 58.609374 17.367188 20.644532 19.027344 37.992188 49.929687 50.175782 89.367187 14.839844 48.042969 22.257812 84.992188 22.679687 112.953125.695313 45.699219-18.171875 51.527344-24.371093 53.441406zm0 0"/><path d="m388.761719 268.5625c-.023438-18.636719-15.191407-33.789062-33.832031-33.789062-18.65625 0-33.832032 15.175781-33.832032 33.832031 0 .261719 0 .523437.007813.785156-.261719-.003906-.527344-.007813-.789063-.007813-18.65625 0-33.832031 15.175782-33.832031 33.832032 0 18.640625 15.15625 33.808594 33.789063 33.832031.023437 18.632813 15.191406 33.789063 33.835937 33.789063 18.65625 0 33.832031-15.175782 33.832031-33.832032 0-.261718-.003906-.527344-.007812-.789062.261718.007812.523437.011718.789062.011718 18.652344 0 33.832032-15.179687 33.832032-33.832031 0-18.640625-15.15625-33.808593-33.792969-33.832031zm-33.832031-13.792969c7.628906 0 13.835937 6.207031 13.835937 13.835938 0 7.628906-6.207031 13.832031-13.835937 13.832031-7.628907 0-13.835938-6.203125-13.835938-13.832031 0-7.628907 6.207031-13.835938 13.835938-13.835938zm-48.449219 48.445313c0-7.628906 6.207031-13.832032 13.835937-13.832032s13.835938 6.203126 13.835938 13.832032-6.207032 13.835937-13.835938 13.835937-13.835937-6.207031-13.835937-13.835937zm47.628906 47.625c-7.628906 0-13.835937-6.207032-13.835937-13.832032 0-7.628906 6.207031-13.835937 13.835937-13.835937s13.835937 6.207031 13.835937 13.835937c0 7.625-6.207031 13.832032-13.835937 13.832032zm34.613281-34.609375c-7.632812 0-13.835937-6.207031-13.835937-13.835938 0-7.625 6.203125-13.832031 13.835937-13.832031 7.628906 0 13.832032 6.207031 13.832032 13.832031 0 7.628907-6.203126 13.835938-13.832032 13.835938zm0 0"/><path d="m190.144531 282.347656h-30.179687v-30.167968h-41.679688v30.167968h-30.179687v41.667969h30.179687v30.167969h41.679688v-30.167969h30.179687zm0 0" fill="#7ccafd"/><path d="m159.964844 364.183594h-41.679688c-5.519531 0-9.996094-4.476563-9.996094-10v-20.171875h-20.183593c-5.519531 0-9.996094-4.476563-9.996094-9.996094v-41.667969c0-5.523437 4.476563-10 9.996094-10h20.183593v-20.167968c0-5.523438 4.476563-10 9.996094-10h41.679688c5.523437 0 10 4.476562 10 10v20.167968h20.179687c5.523438 0 10 4.476563 10 10v41.667969c0 5.519531-4.476562 9.996094-10 9.996094h-20.179687v20.171875c-.003906 5.523437-4.480469 10-10 10zm-31.679688-19.996094h21.679688v-20.171875c0-5.523437 4.476562-10 10-10h20.179687v-21.667969h-20.179687c-5.523438 0-10-4.476562-10-10v-20.171875h-21.679688v20.171875c0 5.523438-4.476562 10-10 10h-20.179687v21.667969h20.179687c5.523438 0 10 4.476563 10 10zm0 0"/></g><g transform="matrix(0.1171875 0 0 0.1171875 147 178)" id="L1_1"><path d="m54.59375 193.980469-37.117188 62.753906c-2.21875 3.332031-3.402343 7.238281-3.402343 11.242187v91.066407c0 4.609375 1.570312 9.0625 4.4375 12.660156l58.78125 73.457031" fill="#00d2d7"/><path d="m303.585938 193.980469 37.113281 62.753906c2.21875 3.332031 3.402343 7.238281 3.402343 11.242187v91.066407c0 4.609375-1.570312 9.0625-4.4375 12.660156l-58.78125 73.457031" fill="#00d2d7"/><path d="m299.996094 174.941406c-2.195313-13.464844-7.828125-25.871094-16.070313-36.1875-8.238281-10.3125-19.101562-18.546875-31.746093-23.675781-4.515626-1.828125-9.34375-2.765625-14.207032-2.765625h-117.757812c-4.875 0-9.703125.949219-14.226563 2.773438l-.039062.019531c-25.289063 10.25-43.398438 32.953125-47.789063 59.875l-2.121094 15.878906v182.011719c0 22.835937 5.925782 44.867187 16.714844 64.164062 1.421875 2.535156 2.917969 5.023438 4.496094 7.457032 21.960938 33.824218 59.117188 57.507812 101.839844 57.507812 42.585937 0 79.792968-23.558594 101.835937-57.507812 13.628907-20.992188 21.210938-45.785157 21.210938-71.621094v-182.011719zm0 0" fill="#52607e"/><path d="m179.089844 474.160156c-30.921875 0-60.257813-16.757812-78.480469-44.824218-1.207031-1.855469-2.402344-3.84375-3.554687-5.898438-2.695313-4.820312-.976563-10.914062 3.84375-13.609375 4.820312-2.699219 10.910156-.976563 13.609374 3.839844.933594 1.675781 1.902344 3.277343 2.875 4.769531 14.519532 22.375 37.585938 35.726562 61.707032 35.726562 24.117187 0 47.183594-13.355468 61.707031-35.722656 3.003906-4.632812 9.199219-5.949218 13.832031-2.941406 4.632813 3.007812 5.949219 9.199219 2.941406 13.832031-18.226562 28.070313-47.5625 44.828125-78.480468 44.828125zm0 0"/><path d="m179.089844 351.75c-31.320313 0-56.792969-25.464844-56.792969-37.851562v-201.585938h113.582031v201.585938c0 12.386718-25.472656 37.851562-56.789062 37.851562zm0 0" fill="#ede6f5"/><path d="m204.351562 203.105469v54.308593c0 13.957032-11.304687 25.261719-25.265624 25.261719-13.957032 0-25.265626-11.304687-25.265626-25.261719v-54.308593c0-13.957031 11.308594-25.261719 25.265626-25.261719 6.972656 0 13.289062 2.832031 17.863281 7.402344 4.574219 4.570312 7.402343 10.886718 7.402343 17.859375zm0 0" fill="#ffe681"/><path d="m47.382812 20h-37.382812c-5.523438 0-10-4.476562-10-10s4.476562-10 10-10h37.382812c5.523438 0 10 4.476562 10 10s-4.476562 10-10 10zm0 0"/><path d="m89.761719 20c-.652344 0-1.3125-.070312-1.949219-.199219-.640625-.121093-1.273438-.320312-1.871094-.570312-.609375-.25-1.191406-.558594-1.730468-.921875-.550782-.359375-1.058594-.777344-1.519532-1.238282-.460937-.460937-.878906-.96875-1.242187-1.519531-.367188-.539062-.667969-1.121093-.917969-1.730469-.25-.601562-.449219-1.230468-.582031-1.871093-.128907-.640625-.1875-1.300781-.1875-1.949219s.058593-1.308594.1875-1.949219c.132812-.640625.332031-1.269531.582031-1.878906.25-.601563.550781-1.179687.917969-1.722656.363281-.550781.78125-1.058594 1.242187-1.519531.460938-.460938.96875-.878907 1.519532-1.238282.539062-.371094 1.121093-.671875 1.730468-.921875.597656-.25 1.230469-.449219 1.871094-.578125 1.289062-.2499998 2.609375-.2499998 3.898438 0 .640624.128906 1.269531.328125 1.871093.578125.609375.25 1.1875.550781 1.730469.921875.546875.359375 1.058594.777344 1.519531 1.238282.457031.460937.878907.96875 1.238281 1.519531.371094.542969.671876 1.121093.921876 1.722656.25.609375.449218 1.238281.578124 1.878906.128907.640625.191407 1.300781.191407 1.949219s-.0625 1.3125-.191407 1.949219c-.128906.640625-.328124 1.269531-.578124 1.871093-.25.609376-.550782 1.191407-.921876 1.730469-.359374.550781-.78125 1.058594-1.238281 1.519531-.460937.460938-.972656.878907-1.519531 1.238282-.542969.363281-1.121094.671875-1.730469.921875-.601562.25-1.230469.449219-1.871093.570312-.640626.128907-1.300782.199219-1.949219.199219zm0 0"/><path d="m349.183594 251.4375-36.992188-62.546875c-.09375-.15625-.191406-.3125-.292968-.464844l-1.992188-14.816406c-.011719-.089844-.023438-.183594-.039062-.273437-2.433594-14.910157-8.703126-29.027344-18.128907-40.820313-9.410156-11.785156-21.789062-21.019531-35.808593-26.707031-5.734376-2.320313-11.773438-3.496094-17.957032-3.496094h-46.742187c2.242187-9.5625 10.847656-16.710938 21.09375-16.710938h81.574219c23.605468 0 42.8125-19.199218 42.8125-42.800781 0-23.601562-19.207032-42.800781-42.8125-42.800781h-164.785157c-5.523437 0-10 4.476562-10 10s4.476563 10 10 10h164.785157c12.578124 0 22.8125 10.230469 22.8125 22.800781 0 12.574219-10.234376 22.800781-22.8125 22.800781h-81.574219c-21.300781 0-38.917969 16.066407-41.371094 36.710938h-50.738281c-6.171875 0-12.21875 1.179688-17.972656 3.503906-.070313.027344-.144532.058594-.21875.089844-28.242188 11.515625-48.820313 37.351562-53.734376 67.464844-.015624.097656-.027343.191406-.042968.285156l-1.96875 14.773438c-.101563.148437-.199219.304687-.292969.460937l-36.992187 62.546875c-3.21875 4.933594-4.917969 10.648438-4.917969 16.539062v91.066407c0 6.832031 2.347656 13.542969 6.628906 18.90625l58.78125 73.457031c.367187.457031.765625.875 1.191406 1.25 25.363281 37.222656 65.65625 59.34375 108.414063 59.34375 42.753906 0 83.046875-22.121094 108.410156-59.339844.425781-.375.824219-.792968 1.191406-1.253906l58.792969-73.46875c4.269531-5.351562 6.617187-12.066406 6.617187-18.894531v-91.066407c0-5.890624-1.699218-11.605468-4.917968-16.539062zm-170.09375-63.59375c4.070312 0 7.902344 1.589844 10.789062 4.472656 2.886719 2.886719 4.472656 6.71875 4.472656 10.789063v54.308593c0 8.414063-6.847656 15.261719-15.261718 15.261719-8.417969 0-15.265625-6.847656-15.265625-15.261719v-54.308593c0-8.414063 6.847656-15.261719 15.265625-15.261719zm-8.425782-65.53125v45.574219c0 .324219.015626.644531.046876.960937-15.414063 3.769532-26.890626 17.699219-26.890626 34.257813v54.308593c0 19.441407 15.820313 35.257813 35.265626 35.257813 19.445312 0 35.265624-15.816406 35.265624-35.257813v-54.308593c0-9.417969-3.667968-18.269531-10.332031-24.933594-3.875-3.871094-8.492187-6.734375-13.527343-8.449219.113281-.597656.171874-1.210937.171874-1.839844v-45.570312h35.214844v191.554688c-.09375 1.679687-3.378906 8.582031-13.125 15.960937-5.875 4.453125-18.066406 11.921875-33.664062 11.921875-15.601563 0-27.789063-7.46875-33.667969-11.921875-9.746094-7.378906-13.03125-14.28125-13.125-15.933594v-191.582031zm-146.589843 236.730469v-91.066407c0-2.03125.597656-4.003906 1.726562-5.699218.097657-.148438.191407-.300782.285157-.453125l19.953124-33.738281v144.785156c0 6.300781.425782 12.585937 1.261719 18.808594l-20.972656-26.207032c-1.453125-1.828125-2.253906-4.109375-2.253906-6.429687zm155.015625 132.957031c-36.992188 0-71.925782-19.796875-93.453125-52.960938-1.417969-2.179687-2.816407-4.5-4.152344-6.886718-10.101563-18.066406-15.445313-38.566406-15.445313-59.28125v-181.347656l2.015626-15.070313c3.84375-23.273437 19.792968-43.222656 41.652343-52.082031.054688-.019532.117188-.046875.175781-.070313.796876-.316406 1.601563-.597656 2.414063-.835937v190.433594c0 11.558593 10.617187 23.847656 20.550781 31.496093 7.9375 6.109375 24.496094 16.355469 46.242188 16.355469 21.742187 0 38.300781-10.246094 46.238281-16.355469 9.933594-7.648437 20.550781-19.9375 20.550781-31.496093v-190.441407c.859375.253907 1.707032.550781 2.539063.886719 10.84375 4.398438 20.417969 11.539062 27.695312 20.65625 7.257813 9.082031 12.097657 19.941406 13.992188 31.417969l2.03125 15.109375v181.34375c0 23.546875-6.777344 46.429687-19.601563 66.175781-21.527344 33.15625-56.460937 52.953125-93.445312 52.953125zm155.011718-132.957031c0 2.320312-.800781 4.601562-2.246093 6.410156l-20.964844 26.203125c.828125-6.195312 1.246094-12.472656 1.246094-18.785156v-144.785156l19.953125 33.738281c.089844.152343.1875.304687.285156.453125 1.128906 1.695312 1.726562 3.664062 1.726562 5.699218zm0 0"/></g><g transform="matrix(0.1171875 0 0 0.1171875 18 107)" id="L1_2"><path d="m81.378906 88.519531h-37.003906c-24.410156 0-44.269531-19.855469-44.269531-44.261719-.003907-24.402343 19.855469-44.257812 44.261719-44.257812h306.21875c5.523437 0 10 4.476562 10 10s-4.476563 10-10 10h-306.21875c-13.378907 0-24.265626 10.882812-24.265626 24.257812 0 13.378907 10.890626 24.265626 24.273438 24.265626h37.003906c5.523438 0 10 4.476562 10 10 0 5.519531-4.480468 9.996093-10 9.996093zm0 0"/><path d="m123.324219 88.519531c-.648438 0-1.308594-.070312-1.949219-.199219-.640625-.121093-1.269531-.320312-1.871094-.570312-.609375-.238281-1.1875-.550781-1.730468-.910156-.546876-.367188-1.058594-.789063-1.519532-1.25-.457031-.457032-.878906-.96875-1.238281-1.519532-.359375-.539062-.671875-1.121093-.921875-1.71875-.25-.609374-.4375-1.242187-.570312-1.871093-.128907-.648438-.199219-1.308594-.199219-1.960938 0-.648437.070312-1.308593.199219-1.949219.132812-.640624.320312-1.269531.570312-1.871093.25-.609375.5625-1.1875.921875-1.726563.359375-.550781.78125-1.0625 1.238281-1.523437.460938-.457031.972656-.878907 1.519532-1.238281.542968-.359376 1.121093-.671876 1.730468-.921876.601563-.25 1.230469-.4375 1.871094-.566406 1.289062-.261718 2.621094-.261718 3.910156 0 .628906.128906 1.261719.316406 1.871094.566406.597656.25 1.179688.5625 1.71875.921876.550781.359374 1.058594.78125 1.519531 1.238281.460938.460937.878907.972656 1.25 1.523437.359375.539063.671875 1.117188.921875 1.726563.25.601562.4375 1.230469.570313 1.871093.128906.640626.1875 1.300782.1875 1.949219 0 .652344-.058594 1.3125-.1875 1.960938-.132813.628906-.320313 1.261719-.570313 1.871093-.25.597657-.5625 1.179688-.921875 1.71875-.371093.550782-.789062 1.0625-1.25 1.519532-.460937.460937-.96875.882812-1.519531 1.25-.539062.359375-1.121094.671875-1.71875.910156-.609375.25-1.242188.449219-1.871094.570312-.648437.128907-1.308594.199219-1.960937.199219zm0 0"/><path d="m201.863281 176.816406h59.261719v39.4375h-59.261719zm0 0" fill="#00d2d7"/><path d="m452.375 307.996094c-9.699219 36.429687-42.917969 63.273437-82.410156 63.273437-47.097656 0-85.277344-38.171875-85.277344-85.257812 0-28.835938 14.320312-54.328125 36.234375-69.757813h-172.214844c21.914063 15.429688 36.234375 40.921875 36.234375 69.757813 0 47.085937-38.179687 85.257812-85.277344 85.257812-39.488281 0-72.710937-26.839843-82.410156-63.273437l-7.253906 146.105468c0 26.453126 21.449219 47.898438 47.910156 47.898438h.003906c18.144532 0 33.886719-10.703125 42.851563-26.476562 13.734375-24.171876 59.992187-93.625 59.992187-93.625 2.628907-5.253907 7.996094-8.570313 13.871094-8.570313h120.375c5.871094 0 11.238282 3.316406 13.867188 8.570313 0 0 46.257812 69.453124 59.992187 93.625 8.96875 15.773437 24.707031 26.476562 42.855469 26.476562h.003906c26.457032 0 47.90625-21.445312 47.90625-47.898438zm0 0" fill="#52607e"/><path d="m144.507812 211.476562-10.359374-33.515624c-4.507813-15.445313-73.238282-15.445313-77.746094 0l-12.773438 41.78125" fill="#43b0fc"/><path d="m426 218.742188-12.773438-40.78125c-4.507812-15.445313-73.238281-15.445313-77.746093 0l-10.359375 32.515624" fill="#43b0fc"/><path d="m184.941406 286.007812c0-47.085937-38.179687-85.257812-85.277344-85.257812-47.09375 0-85.273437 38.171875-85.273437 85.257812 0 47.085938 38.179687 85.257813 85.273437 85.257813 47.097657 0 85.277344-38.171875 85.277344-85.257813zm0 0" fill="#ede6f5"/><path d="m455.238281 286.007812c0-47.085937-38.179687-85.257812-85.273437-85.257812-47.097656 0-85.277344 38.171875-85.277344 85.257812 0 47.085938 38.179688 85.257813 85.277344 85.257813 47.09375 0 85.273437-38.171875 85.273437-85.257813zm0 0" fill="#ede6f5"/><path d="m469.617188 453.601562-7.222657-144.453124c1.855469-7.410157 2.84375-15.160157 2.84375-23.136719 0-26.96875-11.265625-51.355469-29.339843-68.703125-.078126-.519532-.195313-1.039063-.355469-1.554688l-12.75-40.707031c-5.050781-16.847656-35.542969-18.667969-48.4375-18.667969-12.890625 0-43.351563 1.816406-48.433594 18.636719l-9.953125 31.238281h-44.84375v-29.4375c0-5.523437-4.476562-10-10-10h-15.085938c3.167969-7.824218 10.847657-13.355468 19.796876-13.355468h80.746093c23.425781 0 42.480469-19.054688 42.480469-42.472657 0-23.414062-19.054688-42.46875-42.480469-42.46875h-184.304687c-5.519532 0-10 4.480469-10 10 0 5.523438 4.480468 10 10 10h184.304687c12.398438 0 22.480469 10.082031 22.480469 22.46875 0 12.390625-10.085938 22.472657-22.480469 22.472657h-80.746093c-20.070313 0-36.84375 14.367187-40.570313 33.355468h-23.402344c-5.523437 0-10 4.476563-10 10v29.4375h-38.503906l-9.640625-31.1875c-5.035156-16.867187-35.542969-18.6875-48.445312-18.6875-12.910157 0-43.433594 1.820313-48.449219 18.707032l-12.757813 41.730468c-.023437.082032-.046875.160156-.070312.238282-18.226563 17.363281-29.605469 41.855468-29.605469 68.953124 0 7.980469.988281 15.730469 2.84375 23.144532l-7.2226562 144.449218c-.00781255.164063-.0117188.332032-.0117188.5 0 31.925782 25.976562 57.898438 57.914062 57.898438 21.050782 0 40.320313-11.789062 51.542969-31.539062 13.40625-23.585938 59.164063-92.328126 59.625-93.023438.230469-.34375.4375-.699219.621094-1.070312.9375-1.875 2.824219-3.039063 4.925781-3.039063h120.375c2.097656 0 3.984375 1.164063 4.921875 3.039063.183594.371093.394531.730468.621094 1.070312.460937.695312 46.21875 69.441406 59.625 93.023438 11.222656 19.75 30.492187 31.539062 51.550781 31.539062 31.929688 0 57.90625-25.972656 57.90625-57.898438 0-.167968-.003906-.332031-.011718-.5zm-24.378907-167.589843c0 41.496093-33.769531 75.257812-75.273437 75.257812-41.507813 0-75.273438-33.761719-75.273438-75.257812 0-41.5 33.765625-75.261719 75.273438-75.261719 41.503906 0 75.273437 33.761719 75.273437 75.261719zm-70.882812-109.632813c16.59375 0 27.039062 3.28125 29.542969 5.257813l5.539062 17.679687c-12.035156-5.5-25.402344-8.566406-39.472656-8.566406-10.316406 0-20.25 1.648438-29.558594 4.691406l4.398438-13.800781c2.496093-1.976563 12.945312-5.261719 29.550781-5.261719zm-162.492188 10.4375h39.261719v19.4375h-39.261719zm-146.125-5.1875c2.515625-1.976562 12.957031-5.25 29.535157-5.25 16.585937 0 27.03125 3.277344 29.542968 5.253906l4.253906 13.757813c-9.265624-3.011719-19.148437-4.640625-29.40625-4.640625-14.007812 0-27.320312 3.039062-39.3125 8.492188zm33.925781 29.121094c41.507813 0 75.277344 33.761719 75.277344 75.261719 0 41.496093-33.769531 75.257812-75.277344 75.257812-41.503906 0-75.273437-33.761719-75.273437-75.257812 0-41.5 33.769531-75.261719 75.273437-75.261719zm312.054688 281.25c-13.769531 0-26.535156-8.007812-34.160156-21.421875-13.320313-23.4375-55.691406-87.203125-60.0625-93.769531-4.445313-8.335938-13.003906-13.484375-22.492188-13.484375h-120.375c-9.492187 0-18.050781 5.148437-22.496094 13.480469-4.367187 6.566406-46.742187 70.335937-60.0625 93.773437-7.621093 13.414063-20.390624 21.421875-34.160156 21.421875-20.824218 0-37.78125-16.875-37.910156-37.664062l5.433594-108.675782c17.480468 21.699219 44.261718 35.605469 74.230468 35.605469 52.535157 0 95.277344-42.730469 95.277344-95.257813 0-22.609374-7.921875-43.402343-21.132812-59.757812h122.007812c-13.207031 16.355469-21.128906 37.148438-21.128906 59.757812 0 52.527344 42.742188 95.257813 95.273438 95.257813 29.972656 0 56.757812-13.90625 74.234374-35.609375l5.433594 108.679688c-.125 20.792968-17.082031 37.664062-37.910156 37.664062zm0 0"/><path d="m135.96875 271.183594h-21.472656v-21.472656h-29.660156v21.472656h-21.472657v29.652344h21.472657v21.472656h29.660156v-21.472656h21.472656zm0 0" fill="#f05f90"/><path d="m114.496094 332.308594h-29.660156c-5.523438 0-10-4.480469-10-10v-11.472656h-11.472657c-5.523437 0-10-4.476563-10-10v-29.652344c0-5.523438 4.476563-10 10-10h11.472657v-11.472656c0-5.519532 4.476562-10 10-10h29.660156c5.523437 0 10 4.480468 10 10v11.472656h11.472656c5.523438 0 10 4.476562 10 10v29.652344c0 5.523437-4.476562 10-10 10h-11.472656v11.472656c0 5.519531-4.476563 10-10 10zm-19.660156-20h9.660156v-11.472656c0-5.523438 4.476562-10 10-10h11.472656v-9.652344h-11.472656c-5.523438 0-10-4.476563-10-10v-11.472656h-9.660156v11.472656c0 5.523437-4.476563 10-10 10h-11.472657v9.652344h11.472657c5.523437 0 10 4.476562 10 10zm0 0"/><path d="m398.128906 306.175781c-2.558594 0-5.117187-.980469-7.070312-2.933593-3.90625-3.902344-3.902344-10.234376 0-14.140626l2.996094-2.992187-2.996094-2.996094c-3.902344-3.902343-3.90625-10.234375 0-14.140625 3.902344-3.90625 10.238281-3.910156 14.140625-.003906l10.070312 10.066406c1.875 1.875 2.929688 4.417969 2.929688 7.070313 0 2.652343-1.054688 5.199219-2.929688 7.074219l-10.070312 10.0625c-1.953125 1.957031-4.511719 2.933593-7.070313 2.933593zm0 0"/><path d="m341.796875 305.976562c-2.5625 0-5.121094-.976562-7.070313-2.929687l-10.070312-10.066406c-1.875-1.875-2.929688-4.417969-2.929688-7.070313s1.054688-5.195312 2.929688-7.070312l10.070312-10.066406c3.90625-3.902344 10.238282-3.902344 14.140626.003906 3.902343 3.90625 3.902343 10.234375-.003907 14.140625l-2.992187 2.992187 2.992187 2.996094c3.90625 3.90625 3.90625 10.238281.003907 14.144531-1.953126 1.949219-4.511719 2.925781-7.070313 2.925781zm0 0"/><path d="m369.863281 334.238281c-2.558593 0-5.117187-.976562-7.070312-2.929687l-10.066407-10.066406c-3.90625-3.902344-3.90625-10.234376 0-14.140626 3.902344-3.90625 10.238282-3.90625 14.140626 0l2.996093 2.996094 3-2.996094c3.90625-3.90625 10.238281-3.90625 14.140625 0 3.90625 3.90625 3.90625 10.238282 0 14.140626l-10.066406 10.066406c-1.957031 1.953125-4.515625 2.929687-7.074219 2.929687zm0 0"/><path d="m380.128906 267.847656c-2.558594 0-5.117187-.976562-7.070312-2.929687l-2.996094-2.996094-2.996094 2.996094c-3.90625 3.90625-10.238281 3.90625-14.144531 0-3.902344-3.90625-3.902344-10.238281.003906-14.144531l10.066407-10.0625c3.90625-3.90625 10.238281-3.90625 14.140624 0l10.066407 10.0625c3.90625 3.90625 3.90625 10.238281 0 14.144531-1.949219 1.953125-4.511719 2.929687-7.070313 2.929687zm0 0"/><path d="m247.226562 278.804688h-26.753906c-5.523437 0-10-4.480469-10-10 0-5.523438 4.476563-10 10-10h26.753906c5.523438 0 10 4.476562 10 10 0 5.519531-4.476562 10-10 10zm0 0"/><path d="m247.226562 322.75h-26.753906c-5.523437 0-10-4.476562-10-10s4.476563-10 10-10h26.753906c5.523438 0 10 4.476562 10 10s-4.476562 10-10 10zm0 0"/></g><g transform="matrix(0.1171875 0 0 0.1171875 236 73)" id="L1_3"><g fill="#52607e"><path d="m10 363.019531h146.554688v41.183594h-146.554688zm0 0"/><path d="m156.554688 363.019531h146.554687v41.183594h-146.554687zm0 0"/><path d="m303.109375 363.019531h146.550781v41.183594h-146.550781zm0 0"/></g><path d="m10 244.5625h146.554688v118.453125h-146.554688zm0 0" fill="#ede6f5"/><path d="m156.554688 244.5625h146.554687v118.453125h-146.554687zm0 0" fill="#f05f90"/><path d="m303.109375 244.5625h146.550781v118.453125h-146.550781zm0 0" fill="#ede6f5"/><path d="m238.042969 318.546875c0-10.890625-28.527344-9-28.527344-30.058594 0-13.5 11.789063-18.628906 23.039063-18.628906 4.769531 0 17.910156.902344 17.910156 7.917969 0 2.433594-1.621094 7.382812-5.582032 7.382812-3.238281 0-4.949218-3.421875-12.328124-3.421875-6.390626 0-9 2.609375-9 5.402344 0 9 28.527343 7.289063 28.527343 29.96875 0 12.957031-9.449219 19.976563-22.496093 19.976563-11.792969 0-21.691407-5.757813-21.691407-11.699219 0-3.058594 2.699219-7.558594 6.121094-7.558594 4.226563 0 6.929687 6.660156 15.296875 6.660156 4.140625 0 8.730469-1.621093 8.730469-5.941406zm0 0"/><path d="m54.273438 330.425781c0-.269531.089843-.628906.179687-.988281l16.738281-54.898438c.992188-3.148437 5.042969-4.679687 9.179688-4.679687 4.140625 0 8.191406 1.53125 9.183594 4.679687l16.828124 54.898438c.089844.359375.179688.71875.179688.988281 0 3.332031-5.128906 5.761719-9 5.761719-2.25 0-4.050781-.71875-4.589844-2.609375l-3.0625-11.25h-18.984375l-3.0625 11.25c-.539062 1.890625-2.339843 2.609375-4.589843 2.609375-3.871094 0-9-2.429688-9-5.761719zm32.667968-18.898437-6.570312-24.117188-6.566406 24.117188zm0 0"/><path d="m380.648438 270.398438c12.417968 0 22.136718 5.761718 22.136718 21.238281v23.308593c0 15.480469-9.71875 21.242188-22.136718 21.242188h-15.929688c-3.691406 0-6.121094-1.980469-6.121094-4.230469v-57.328125c0-2.25 2.429688-4.230468 6.121094-4.230468zm-8.011719 12.242187v41.304687h8.011719c5.039062 0 8.097656-2.878906 8.097656-9v-23.308593c0-6.117188-3.058594-9-8.097656-9h-8.011719zm0 0"/><path d="m62.339844 128.453125h146.550781v41.1875h-146.550781zm0 0" fill="#52607e"/><path d="m208.890625 128.453125h146.554687v41.1875h-146.554687zm0 0" fill="#52607e"/><path d="m355.445312 128.453125h146.554688v41.1875h-146.554688zm0 0" fill="#52607e"/><path d="m62.339844 10h146.550781v118.453125h-146.550781zm0 0" fill="#ede6f5"/><path d="m208.890625 10h146.554687v118.453125h-146.554687zm0 0" fill="#00d2d7"/><path d="m355.445312 10h146.554688v118.453125h-146.554688zm0 0" fill="#ede6f5"/><path d="m449.660156 234.5625h-439.660156c-5.523438 0-10 4.476562-10 10v159.636719c0 5.523437 4.476562 10 10 10h439.660156c5.523438 0 10-4.476563 10-10v-159.636719c0-5.523438-4.476562-10-10-10zm-10 118.457031h-126.550781v-98.457031h126.550781zm-146.550781 0h-126.554687v-98.457031h126.554687zm-273.109375-98.457031h126.554688v98.453125h-126.554688zm0 118.457031h126.554688v21.183594h-126.554688zm146.554688 0h126.554687v21.183594h-126.554687zm273.105468 21.183594h-126.550781v-21.183594h126.550781zm0 0"/><path d="m502 0h-439.660156c-5.523438 0-10 4.476562-10 10v159.636719c0 5.523437 4.476562 10 10 10h439.660156c5.523438 0 10-4.476563 10-10v-159.636719c0-5.523438-4.476562-10-10-10zm-10 118.453125h-126.554688v-98.453125h126.554688zm-146.554688 0h-126.554687v-98.453125h126.554687zm-273.105468-98.453125h126.550781v98.453125h-126.550781zm0 118.453125h126.550781v21.1875h-126.550781zm146.550781 0h126.554687v21.1875h-126.554687zm273.109375 21.1875h-126.554688v-21.1875h126.554688zm0 0"/><path d="m306.957031 97.484375c-1.078125 3.148437-5.128906 4.679687-9.269531 4.679687-4.050781 0-8.371094-1.53125-9.089844-4.679687l-4.679687-21.328125-4.679688 21.328125c-.722656 3.148437-5.039062 4.679687-9.089843 4.679687-4.140626 0-8.28125-1.53125-9.269532-4.679687l-17.910156-54.898437c-.089844-.269532-.179688-.71875-.179688-1.171876 0-3.058593 5.039063-5.578124 9.089844-5.578124 2.160156 0 3.960938.71875 4.5 2.609374l13.679688 46.167969 7.109375-30.417969c.539062-2.429687 3.6875-3.6875 6.75-3.6875 3.058593 0 6.210937 1.257813 6.75 3.6875l7.109375 30.417969 13.679687-46.167969c.539063-1.890624 2.339844-2.609374 4.5-2.609374 4.050781 0 9.089844 2.519531 9.089844 5.578124 0 .453126-.09375.902344-.183594 1.171876zm0 0"/><path d="m451.871094 217.101562c-.652344 0-1.3125-.070312-1.949219-.199218-.640625-.121094-1.273437-.320313-1.871094-.570313-.609375-.25-1.191406-.5625-1.730469-.921875-.550781-.359375-1.058593-.777344-1.519531-1.238281-.460937-.460937-.878906-.972656-1.242187-1.519531-.359375-.542969-.667969-1.121094-.917969-1.722656-.25-.609376-.441406-1.238282-.570313-1.878907-.128906-.640625-.199218-1.300781-.199218-1.949219 0-.652343.070312-1.3125.199218-1.949218.128907-.640625.320313-1.269532.570313-1.871094.25-.609375.558594-1.191406.917969-1.730469.363281-.550781.78125-1.058593 1.242187-1.519531.460938-.460938.96875-.878906 1.519531-1.242188.539063-.367187 1.121094-.667968 1.730469-.917968.597657-.25 1.230469-.449219 1.871094-.570313 1.289063-.261719 2.617187-.261719 3.898437 0 .640626.121094 1.269532.320313 1.878907.570313.601562.25 1.179687.550781 1.722656.917968.546875.363282 1.058594.78125 1.519531 1.242188.457032.460938.878906.96875 1.25 1.519531.359375.539063.667969 1.121094.917969 1.730469.25.601562.441406 1.230469.5625 1.871094.128906.636718.199219 1.296875.199219 1.949218 0 .648438-.070313 1.308594-.199219 1.949219-.121094.640625-.3125 1.269531-.5625 1.878907-.25.601562-.558594 1.179687-.917969 1.722656-.371094.546875-.792968 1.058594-1.25 1.519531-.460937.460937-.972656.878906-1.519531 1.238281-.542969.359375-1.121094.671875-1.722656.921875-.609375.25-1.238281.449219-1.878907.570313-.640624.128906-1.300781.199218-1.949218.199218zm0 0"/><path d="m413.875 217.101562h-353.746094c-5.523437 0-10-4.476562-10-10 0-5.523437 4.476563-10 10-10h353.746094c5.523438 0 10 4.476563 10 10 0 5.523438-4.476562 10-10 10zm0 0"/></g><g transform="matrix(0.12589482963085175 -0.03550880402326584 0.03550880402326584 0.12589482963085175 244.3907928466797 274.9649963378906)" id="L1_4"><path d="m338.878906 42.222656c0-17.796875-14.425781-32.222656-32.222656-32.222656h-264.433594c-17.796875 0-32.222656 14.425781-32.222656 32.222656v286.777344h328.878906zm0 0" fill="#52607e"/><path d="m10 329v140.777344c0 17.796875 14.425781 32.222656 32.222656 32.222656h264.433594c17.796875 0 32.222656-14.425781 32.222656-32.222656v-140.777344zm0 0" fill="#43b0fc"/><path d="m288.878906 278.996094h-228.878906v-218.996094h228.878906v136.996094" fill="#e7ebed"/><path d="m288.878906 254c-.648437 0-1.308594-.070312-1.960937-.199219-.628907-.128906-1.257813-.320312-1.867188-.570312-.601562-.25-1.179687-.558594-1.722656-.921875-.546875-.359375-1.058594-.777344-1.519531-1.238282-.460938-.460937-.878906-.96875-1.25-1.519531-.359375-.539062-.667969-1.121093-.917969-1.730469-.25-.601562-.441406-1.230468-.570313-1.871093-.128906-.640625-.191406-1.300781-.191406-1.949219s.0625-1.308594.191406-1.960938c.128907-.640624.320313-1.269531.570313-1.867187.25-.601563.558594-1.179687.917969-1.722656.371094-.550781.789062-1.058594 1.25-1.519531.460937-.457032.972656-.878907 1.519531-1.25.542969-.359376 1.121094-.667969 1.722656-.917969.609375-.25 1.238281-.441407 1.867188-.570313 1.292969-.261718 2.621093-.261718 3.910156 0 .640625.128906 1.273437.320313 1.871094.570313.609375.25 1.191406.558593 1.730469.917969.550781.371093 1.058593.792968 1.519531 1.25.460937.460937.878906.972656 1.242187 1.519531.355469.542969.667969 1.121093.917969 1.722656.25.597656.441406 1.226563.570313 1.867187.128906.652344.199218 1.3125.199218 1.960938s-.070312 1.3125-.199218 1.949219c-.132813.640625-.320313 1.273437-.570313 1.871093-.25.609376-.558594 1.191407-.917969 1.730469-.363281.550781-.78125 1.058594-1.242187 1.519531-.460938.460938-.96875.878907-1.519531 1.238282-.539063.363281-1.121094.671875-1.730469.921875-.601563.25-1.230469.441406-1.871094.570312-.636719.128907-1.296875.199219-1.949219.199219zm0 0"/><path d="m238.152344 278.996094v-41.179688h-42.476563v-42.476562h-42.472656v42.476562h-42.476563v41.179688zm0 0" fill="#f05f90"/><path d="m306.65625 0h-264.433594c-23.28125 0-42.222656 18.941406-42.222656 42.222656v427.554688c0 23.28125 18.941406 42.222656 42.222656 42.222656h264.433594c23.28125 0 42.222656-18.9375 42.222656-42.222656v-427.554688c0-23.28125-18.941406-42.222656-42.222656-42.222656zm-286.65625 42.222656c0-12.253906 9.96875-22.222656 22.222656-22.222656h264.4375c12.25 0 22.21875 9.96875 22.21875 22.222656v276.777344h-308.878906zm308.878906 427.554688c0 12.253906-9.96875 22.222656-22.222656 22.222656h-264.433594c-12.253906 0-22.222656-9.96875-22.222656-22.222656v-130.777344h308.878906zm0 0"/><path d="m288.878906 50h-228.875c-5.523437 0-10 4.480469-10 10v218.996094c0 5.523437 4.476563 10 10 10h228.875c5.519532 0 10-4.476563 10-10 0-5.523438-4.480468-10-10-10h-40.726562v-31.179688c0-5.523437-4.476563-10-10-10h-32.476563v-32.476562c0-5.523438-4.476562-10-10-10h-42.472656c-5.523437 0-10 4.476562-10 10v32.476562h-32.476563c-5.523437 0-10 4.476563-10 10v31.179688h-30.726562v-198.996094h208.875v126.996094c0 5.523437 4.476562 10 10 10s10-4.476563 10-10v-136.996094c.003906-5.519531-4.476562-10-9.996094-10zm-168.152344 197.816406h32.476563c5.523437 0 10-4.476562 10-10v-32.476562h22.472656v32.476562c0 5.523438 4.480469 10 10 10h32.476563v21.179688h-107.425782zm0 0"/><path d="m110.726562 103.125h127.425782v41.179688h-127.425782zm0 0" fill="#00d2d7"/><path d="m238.152344 154.304688h-127.425782c-5.523437 0-10-4.476563-10-10v-41.179688c0-5.523438 4.476563-10 10-10h127.425782c5.523437 0 10 4.476562 10 10v41.179688c0 5.519531-4.476563 10-10 10zm-117.425782-20h107.425782v-21.179688h-107.425782zm0 0"/><path d="m131.203125 394.589844h-24.648437v-24.644532h-34.03125v24.644532h-24.648438v34.035156h24.648438v24.644531h34.03125v-24.644531h24.648437zm0 0" fill="#e7ebed"/><path d="m106.554688 463.269531h-34.03125c-5.523438 0-10-4.480469-10-10v-14.644531h-14.648438c-5.519531 0-10-4.476562-10-10v-34.035156c0-5.523438 4.480469-10 10-10h14.648438v-14.644532c0-5.523437 4.476562-10 10-10h34.03125c5.523437 0 10 4.476563 10 10v14.644532h14.648437c5.519531 0 10 4.476562 10 10v34.035156c0 5.523438-4.480469 10-10 10h-14.648437v14.644531c0 5.519531-4.476563 10-10 10zm-24.03125-20h14.03125v-14.644531c0-5.523438 4.480468-10 10-10h14.648437v-14.035156h-14.648437c-5.519532 0-10-4.480469-10-10v-14.644532h-14.03125v14.644532c0 5.519531-4.480469 10-10 10h-14.648438v14.035156h14.648438c5.519531 0 10 4.476562 10 10zm0 0"/><path d="m293.695312 366.976562c-9.738281-9.734374-25.523437-9.734374-35.257812 0-9.738281 9.738282-9.738281 25.523438 0 35.257813 9.734375 9.738281 25.519531 9.738281 35.257812 0 9.734376-9.734375 9.734376-25.519531 0-35.257813zm0 0" fill="#ffe681"/><path d="m276.070312 419.523438c-8.945312 0-17.890624-3.40625-24.699218-10.214844-6.597656-6.597656-10.234375-15.371094-10.234375-24.703125 0-9.328125 3.636719-18.101563 10.234375-24.699219s15.371094-10.230469 24.699218-10.230469c9.332032 0 18.105469 3.632813 24.703126 10.230469 13.617187 13.621094 13.617187 35.78125 0 49.402344-6.8125 6.808594-15.757813 10.214844-24.703126 10.214844zm0-49.839844c-3.824218 0-7.644531 1.453125-10.558593 4.363281-5.820313 5.820313-5.820313 15.296875 0 21.117187 5.824219 5.824219 15.296875 5.820313 21.117187 0 5.820313-5.820312 5.820313-15.296874 0-21.117187-2.910156-2.910156-6.734375-4.363281-10.558594-4.363281zm0 0"/><path d="m239.695312 420.976562c-9.738281-9.738281-25.523437-9.738281-35.261718 0-9.734375 9.734376-9.734375 25.523438 0 35.257813 9.738281 9.738281 25.523437 9.738281 35.261718 0 9.734376-9.734375 9.734376-25.523437 0-35.257813zm0 0" fill="#00d2d7"/><path d="m222.070312 473.539062c-9.332031 0-18.105468-3.632812-24.703124-10.230468-13.617188-13.621094-13.617188-35.78125 0-49.402344 13.621093-13.621094 35.78125-13.617188 49.402343 0 13.617188 13.621094 13.617188 35.78125 0 49.402344-6.597656 6.597656-15.371093 10.230468-24.699219 10.230468zm0-49.855468c-3.824218 0-7.648437 1.453125-10.558593 4.367187-5.820313 5.820313-5.824219 15.292969 0 21.113281 2.820312 2.820313 6.570312 4.375 10.558593 4.375 3.984376 0 7.734376-1.554687 10.558594-4.375 5.820313-5.820312 5.820313-15.292968 0-21.117187-2.914062-2.910156-6.738281-4.363281-10.558594-4.363281zm0 0"/></g></defs><g fi:class="KUsePattern"><pattern id="pattern_L1_0" width="350" height="350" patternUnits="userSpaceOnUse"><use xlink:href="#L1_0" x="-350" y="-350"/><use xlink:href="#L1_0" x="0" y="-350"/><use xlink:href="#L1_0" x="350" y="-350"/><use xlink:href="#L1_0" x="-350" y="0"/><use xlink:href="#L1_0" x="0" y="0"/><use xlink:href="#L1_0" x="350" y="0"/><use xlink:href="#L1_0" x="-350" y="350"/><use xlink:href="#L1_0" x="0" y="350"/><use xlink:href="#L1_0" x="350" y="350"/></pattern><rect x="0" y="0" width="100%" height="100%" fill="url(#pattern_L1_0)"/></g><g fi:class="KUsePattern"><pattern id="pattern_L1_1" width="350" height="350" patternUnits="userSpaceOnUse"><use xlink:href="#L1_1" x="-350" y="-350"/><use xlink:href="#L1_1" x="0" y="-350"/><use xlink:href="#L1_1" x="350" y="-350"/><use xlink:href="#L1_1" x="-350" y="0"/><use xlink:href="#L1_1" x="0" y="0"/><use xlink:href="#L1_1" x="350" y="0"/><use xlink:href="#L1_1" x="-350" y="350"/><use xlink:href="#L1_1" x="0" y="350"/><use xlink:href="#L1_1" x="350" y="350"/></pattern><rect x="0" y="0" width="100%" height="100%" fill="url(#pattern_L1_1)"/></g><g fi:class="KUsePattern"><pattern id="pattern_L1_2" width="350" height="350" patternUnits="userSpaceOnUse"><use xlink:href="#L1_2" x="-350" y="-350"/><use xlink:href="#L1_2" x="0" y="-350"/><use xlink:href="#L1_2" x="350" y="-350"/><use xlink:href="#L1_2" x="-350" y="0"/><use xlink:href="#L1_2" x="0" y="0"/><use xlink:href="#L1_2" x="350" y="0"/><use xlink:href="#L1_2" x="-350" y="350"/><use xlink:href="#L1_2" x="0" y="350"/><use xlink:href="#L1_2" x="350" y="350"/></pattern><rect x="0" y="0" width="100%" height="100%" fill="url(#pattern_L1_2)"/></g><g fi:class="KUsePattern"><pattern id="pattern_L1_3" width="350" height="350" patternUnits="userSpaceOnUse"><use xlink:href="#L1_3" x="-350" y="-350"/><use xlink:href="#L1_3" x="0" y="-350"/><use xlink:href="#L1_3" x="350" y="-350"/><use xlink:href="#L1_3" x="-350" y="0"/><use xlink:href="#L1_3" x="0" y="0"/><use xlink:href="#L1_3" x="350" y="0"/><use xlink:href="#L1_3" x="-350" y="350"/><use xlink:href="#L1_3" x="0" y="350"/><use xlink:href="#L1_3" x="350" y="350"/></pattern><rect x="0" y="0" width="100%" height="100%" fill="url(#pattern_L1_3)"/></g><g fi:class="KUsePattern"><pattern id="pattern_L1_4" width="350" height="350" patternUnits="userSpaceOnUse"><use xlink:href="#L1_4" x="-350" y="-350"/><use xlink:href="#L1_4" x="0" y="-350"/><use xlink:href="#L1_4" x="350" y="-350"/><use xlink:href="#L1_4" x="-350" y="0"/><use xlink:href="#L1_4" x="0" y="0"/><use xlink:href="#L1_4" x="350" y="0"/><use xlink:href="#L1_4" x="-350" y="350"/><use xlink:href="#L1_4" x="0" y="350"/><use xlink:href="#L1_4" x="350" y="350"/></pattern><rect x="0" y="0" width="100%" height="100%" fill="url(#pattern_L1_4)"/></g></svg>